<?xml version="1.0" encoding="UTF-8" standalone="no"?>
<!-- Created with Inkscape (http://www.inkscape.org/) -->

<svg
   version="1.1"
   id="svg2"
   width="666.66669"
   height="666.66669"
   viewBox="0 0 666.66669 666.66669"
   sodipodi:docname="6534600.eps"
   xmlns:inkscape="http://www.inkscape.org/namespaces/inkscape"
   xmlns:sodipodi="http://sodipodi.sourceforge.net/DTD/sodipodi-0.dtd"
   xmlns="http://www.w3.org/2000/svg"
   xmlns:svg="http://www.w3.org/2000/svg">
  <defs
     id="defs6" />
  <sodipodi:namedview
     id="namedview4"
     pagecolor="#ffffff"
     bordercolor="#000000"
     borderopacity="0.25"
     inkscape:showpageshadow="2"
     inkscape:pageopacity="0.0"
     inkscape:pagecheckerboard="0"
     inkscape:deskcolor="#d1d1d1" />
  <g
     id="g8"
     inkscape:groupmode="layer"
     inkscape:label="ink_ext_XXXXXX"
     transform="matrix(1.3333333,0,0,-1.3333333,0,666.66667)">
    <g
       id="g10"
       transform="scale(0.1)">
      <path
         d="M 0,0 H 5000 V 5000 H 0 Z"
         style="fill:#0b0b0c;fill-opacity:1;fill-rule:nonzero;stroke:none"
         id="path12" />
      <path
         d="m 2583.05,759.77 c -25.96,0 -51.95,0.621 -77.89,1.859 -145.72,6.25 -290.57,33.941 -428.85,80.351 -69.15,23.2 -136.69,51.149 -201.97,83.551 -32.69,16.129 -64.68,33.641 -96.18,51.918 -15.56,9.461 -31.34,18.571 -46.68,28.381 l -22.89,14.9 -11.44,7.47 -5.71,3.73 -2.93,1.92 -4,2.81 c -42.67,29.83 -77.32,71.75 -98.46,119.6 -7.09,15.86 -12.68,32.39 -16.72,49.31 11.15,-10.89 23.16,-20.86 35.89,-29.75 l 3.99,-2.81 2.93,-1.92 5.72,-3.74 11.43,-7.46 22.89,-14.91 c 15.34,-9.81 31.13,-18.91 46.69,-28.38 31.5,-18.28 63.48,-35.78 96.17,-51.91 65.29,-32.41 132.82,-60.35 201.98,-83.549 138.27,-46.411 283.12,-74.102 428.85,-80.36 25.93,-1.242 51.91,-1.859 77.88,-1.859 119.78,0 239.57,13.199 356.65,39.769 142.37,32.34 280.53,84.059 408.66,154.279 128.14,70.13 246.49,157.95 350.8,260.05 104.2,102.16 194.93,218.32 267.07,345.22 72.4,126.71 127.21,263.37 162.53,404.78 31.58,126.55 47.32,256.7 47.31,386.77 -0.01,160.75 -24.07,321.37 -72,474.91 -25.6,82.37 -58.08,162.51 -96.85,239.41 75.11,-117.44 134.66,-245.08 176.15,-378.56 86.72,-277.79 95.29,-578.75 24.69,-861.68 -35.33,-141.41 -90.13,-278.08 -162.53,-404.79 -72.14,-126.91 -162.87,-243.06 -267.07,-345.21 C 3594.85,1111.76 3476.5,1023.95 3348.36,953.809 3220.23,883.59 3082.07,831.871 2939.69,799.531 2822.62,772.969 2702.83,759.762 2583.05,759.77 m -813.79,550.83 c -3.21,1.93 -6.4,3.88 -9.57,5.87 l -38.84,24.94 c -26.76,17.88 -41.9,51.05 -38.09,82.31 0.91,7.98 2.65,15.05 6.06,23.32 l 19.27,45.78 39.79,94.31 159.15,377.22 158.28,377.61 158,377.72 157.15,378.11 78.53,189.07 34.33,83.22 c 2.11,5.13 6.83,7.72 11.55,7.72 4.49,0 8.99,-2.35 11.26,-7.12 l 63.17,-132.99 c -2.85,-1.18 -5.32,-3.44 -6.69,-6.76 l -34.33,-83.23 -78.53,-189.06 -157.15,-378.11 -158,-377.73 -158.28,-377.61 -159.15,-377.21 -39.78,-94.31 -18.13,-43.07 m 1664.14,212.86 c -25.73,0 -42.18,23.39 -52.42,34.1 -496.21,518.67 -968.57,550.88 -1078.26,550.88 -15.56,0 -23.82,-0.65 -23.82,-0.65 51.81,19.43 113.08,26.49 174.64,26.49 66.75,0 133.83,-8.31 189.42,-18.11 53.49,-9.35 106.19,-23.48 157.59,-41.4 17.84,-6.36 35.52,-13.15 53.05,-20.34 132.39,-76.48 276.07,-182.98 422.38,-331.28 v 0.01 c 7.44,-7.54 14.89,-15.18 22.34,-22.93 1.1,-1.15 2.26,-2.36 3.36,-3.51 v 0 c 10.25,-10.71 26.69,-34.1 52.41,-34.1 4.28,0 8.81,0.65 13.61,2.1 0.6,0.18 1.18,0.38 1.75,0.59 24.25,8.95 26.65,44.73 20.43,65.39 0,0.01 -0.01,0.02 -0.01,0.02 -0.02,0.06 -0.03,0.11 -0.05,0.17 0,0.01 -0.01,0.03 -0.01,0.04 -0.02,0.05 -0.03,0.09 -0.05,0.14 -0.01,0.03 -0.02,0.07 -0.03,0.1 0,0.01 0,0.03 -0.01,0.04 -0.44,1.4 -0.91,2.73 -1.43,3.97 0,0.02 -0.01,0.03 -0.01,0.04 -0.02,0.05 -0.04,0.1 -0.06,0.15 -0.02,0.03 -0.03,0.05 -0.04,0.08 -0.01,0.02 -0.02,0.04 -0.03,0.07 -0.02,0.04 -0.04,0.09 -0.06,0.14 l -0.62,1.46 C 3172.49,2239.1 2955,2740.01 2736.03,3240.28 l -82.38,187.49 -6.68,15.17 c 8.75,-6.17 16.66,-13.53 23.27,-21.81 3.92,-4.86 7.35,-9.96 10.37,-15.18 1.52,-2.63 2.95,-5.47 4.32,-8.25 l 1.64,-3.65 5.15,-11.71 41.23,-93.73 82.38,-187.48 c 218.96,-500.27 436.45,-1001.18 651.43,-1503.16 l 0.63,-1.46 c 8.44,-19.71 7.67,-62.44 -20.39,-70.95 -4.8,-1.45 -9.33,-2.1 -13.6,-2.1 M 1222.13,1728 c -62.71,121.37 -107.78,252.41 -134.73,387.61 -26.55,135.33 -34.09,274.8 -22.83,413.34 5.58,69.28 16.1,138.28 31.3,206.4 15.52,68.01 35.53,135.18 60.44,200.61 49.3,131.08 117.46,255.46 201.35,368.59 167.25,226.66 398.72,407.84 663.04,514.7 125.84,51.17 258.85,85.75 394.32,102.09 20.7,0.92 41.43,1.37 62.15,1.37 93.65,0 187.19,-9.27 278.66,-27.32 126.78,-25.24 249.83,-67.57 364.73,-125.71 115.01,-57.99 221.51,-132.17 316.3,-218.74 94.91,-86.46 177.9,-185.74 245.93,-294.17 24.42,-39.05 46.9,-79.28 67.37,-120.47 -65.72,101.16 -144.56,194.01 -234,275.49 -94.8,86.56 -201.3,160.74 -316.3,218.73 -114.9,58.14 -237.95,100.47 -364.74,125.71 -91.46,18.05 -185.01,27.33 -278.65,27.33 -36.13,0 -72.28,-1.39 -108.32,-4.18 -129.48,-9.64 -257.95,-36.89 -380.51,-81.78 -122.52,-44.85 -239.53,-106.13 -346.42,-182.47 -106.82,-76.4 -203.65,-167.41 -287.2,-269.77 -83.51,-102.42 -153.22,-216.56 -206.65,-338.34 -26.87,-60.83 -49.15,-123.78 -67.42,-187.95 -18.36,-64.16 -32.38,-129.71 -41.7,-196.08 -37.58,-265.52 -2.26,-543.24 103.88,-794.99"
         style="fill:#060707;fill-opacity:1;fill-rule:nonzero;stroke:none"
         id="path14" />
      <path
         d="m 2468.78,3470.4 -0.45,0.91 0.45,-0.91 m 1555.99,-505.7 c -43.14,138.81 -105.83,271.32 -185.22,392.6 -79.43,121.26 -175.31,231.41 -284.05,326.63 -217.46,190.5 -487.87,319.08 -771.49,366.21 -141.78,23.5 -286.16,27.99 -428.48,12.62 -142.31,-15.28 -282.16,-50.69 -414.12,-104.36 -264.32,-106.85 -495.8,-288.03 -663.04,-514.7 -83.9,-113.13 -152.05,-237.5 -201.36,-368.59 -24.91,-65.42 -44.91,-132.59 -60.44,-200.61 -15.2,-68.11 -25.718,-137.12 -31.3,-206.4 -11.258,-138.54 -3.719,-278.01 22.83,-413.33 26.96,-135.2 72.02,-266.25 134.74,-387.61 -106.14,251.74 -141.47,529.47 -103.88,794.99 9.31,66.37 23.34,131.91 41.7,196.08 18.26,64.17 40.55,127.11 67.42,187.94 53.43,121.78 123.13,235.92 206.64,338.34 83.56,102.37 180.38,193.38 287.21,269.78 106.88,76.33 223.9,137.62 346.42,182.46 122.55,44.9 251.03,72.15 380.5,81.79 129.44,10.03 260.22,1.86 386.98,-23.15 126.78,-25.24 249.83,-67.57 364.73,-125.71 115.01,-57.99 221.51,-132.17 316.3,-218.74 94.91,-86.46 177.9,-185.74 245.93,-294.17 67.85,-108.53 120.74,-226.06 157.15,-348.33 72.9,-244.5 75.6,-509.23 12.54,-755.5 -63.4,-246.41 -196.12,-473.76 -378.26,-650.75 -90.96,-88.56 -194.06,-164.59 -305.5,-225.19 -111.58,-60.34 -231.12,-105.91 -354.82,-134.32 -123.63,-28.44 -251.52,-39.78 -378.54,-34.04 -126.99,5.35 -253.03,28.16 -373.78,67.54 -60.38,19.7 -119.43,43.52 -176.6,71.3 -28.64,13.81 -56.66,28.85 -84.31,44.57 -13.63,8.18 -27.51,15.96 -40.98,24.42 l -38.84,24.94 c -26.76,17.88 -41.9,51.05 -38.09,82.31 0.91,7.98 2.65,15.05 6.06,23.32 l 19.27,45.78 39.79,94.31 159.15,377.22 158.28,377.61 158,377.72 157.15,378.11 78.53,189.07 34.33,83.22 c 4.13,10.01 18.17,10.38 22.81,0.6 l 90.43,-190.38 c 202.19,-423.99 405.56,-847.46 610.58,-1270.23 -23.79,20.88 -48.05,41.23 -72.83,60.91 -85.33,67.65 -176.36,128.39 -273.33,178.03 -48.45,24.83 -98.47,46.63 -149.72,64.92 -51.4,17.91 -104.11,32.04 -157.59,41.4 -106.86,18.84 -256.07,32.12 -364.07,-8.38 0,0 535.5,42 1102.08,-550.23 11.95,-12.49 32.32,-42.22 66.02,-32 28.06,8.5 28.83,51.24 20.39,70.94 l -0.62,1.46 C 3172.49,2239.1 2955,2740.01 2736.03,3240.28 l -82.38,187.49 -41.22,93.72 -5.16,11.72 -1.64,3.64 c -1.37,2.79 -2.79,5.63 -4.32,8.25 -3,5.23 -6.44,10.33 -10.37,15.18 -15.63,19.6 -38.57,34.04 -62.46,39.69 -23.93,5.87 -49.1,4.2 -72.34,-5.22 -23.25,-9.16 -44.03,-27.4 -56.34,-48.62 -1.57,-2.57 -3.06,-5.36 -4.46,-8.25 l -2.55,-5.43 -2.61,-5.84 -5.22,-11.68 -10.46,-23.35 -20.91,-46.71 -41.81,-93.42 -83.17,-187.03 -166.26,-374.1 -165.41,-374.48 -165.13,-374.6 -164.26,-374.98 -41.06,-93.74 -21.1,-48.26 c -10.01,-23.09 -17.42,-49.25 -20.75,-75.12 -6.96,-52.13 0.77,-105.96 22.11,-153.73 21.15,-47.84 55.79,-89.76 98.47,-119.59 l 3.99,-2.81 2.93,-1.92 5.72,-3.74 11.43,-7.46 22.89,-14.91 c 15.34,-9.81 31.13,-18.91 46.69,-28.38 31.5,-18.28 63.48,-35.78 96.17,-51.91 65.29,-32.41 132.82,-60.35 201.98,-83.549 138.27,-46.411 283.12,-74.102 428.85,-80.36 145.56,-6.961 292.08,5.578 434.53,37.91 142.37,32.34 280.53,84.059 408.66,154.279 128.14,70.13 246.49,157.95 350.8,260.05 104.2,102.16 194.93,218.32 267.07,345.22 72.4,126.71 127.21,263.37 162.53,404.78 70.6,282.93 62.03,583.9 -24.69,861.68"
         style="fill:#ffffff;fill-opacity:1;fill-rule:nonzero;stroke:none"
         id="path16" />
      <path
         d="m 2853.7,2054.39 c -0.04,0.01 -0.07,0.02 -0.1,0.04 -308.07,177.94 -554.84,193.17 -630.19,193.17 -15.54,0 -23.81,-0.65 -23.81,-0.65 v 0 c 0,0 8.27,0.65 23.82,0.65 75.41,0 322.17,-15.2 630.28,-193.21"
         style="fill:#080909;fill-opacity:1;fill-rule:nonzero;stroke:none"
         id="path18" />
      <path
         d="m 3354.09,1662.62 c -25.72,0 -42.16,23.39 -52.41,34.1 v 0 0 c 10.25,-10.71 26.69,-34.1 52.41,-34.1 4.28,0 8.81,0.65 13.61,2.1 0.6,0.18 1.18,0.38 1.75,0.59 -0.57,-0.21 -1.15,-0.41 -1.75,-0.59 -4.8,-1.45 -9.33,-2.1 -13.61,-2.1 m -55.77,37.61 c -7.45,7.75 -14.9,15.39 -22.34,22.93 v -0.01 c -146.31,148.3 -289.99,254.8 -422.38,331.28 0.03,-0.02 0.06,-0.03 0.1,-0.04 139.09,-80.36 290.66,-193.87 444.62,-354.16 m 91.56,30.47 c 0,0.01 -0.01,0.01 -0.01,0.02 0,0 0.01,-0.01 0.01,-0.02 m -0.06,0.19 c 0,0.01 -0.01,0.03 -0.01,0.04 0,-0.01 0.01,-0.03 0.01,-0.04 m -0.06,0.18 c -0.01,0.03 -0.02,0.07 -0.03,0.1 0.01,-0.03 0.02,-0.07 0.03,-0.1 m -0.04,0.14 c -0.44,1.4 -0.91,2.73 -1.43,3.97 0.52,-1.24 0.99,-2.57 1.43,-3.97 m -1.44,4.01 c -0.02,0.05 -0.04,0.1 -0.06,0.15 0.02,-0.05 0.04,-0.1 0.06,-0.15 m -0.1,0.23 c -0.01,0.02 -0.02,0.04 -0.03,0.07 0.01,-0.03 0.02,-0.05 0.03,-0.07"
         style="fill:#050607;fill-opacity:1;fill-rule:nonzero;stroke:none"
         id="path20" />
      <path
         d="m 2503.75,898.922 c -25.97,0 -51.95,0.617 -77.88,1.859 -145.73,6.258 -290.58,33.949 -428.85,80.36 -69.16,23.199 -136.69,51.139 -201.98,83.549 -32.69,16.13 -64.67,33.63 -96.17,51.91 -15.56,9.47 -31.35,18.57 -46.69,28.38 l -22.89,14.91 -11.43,7.46 -5.72,3.74 -2.93,1.92 -3.99,2.81 c -42.68,29.83 -77.32,71.75 -98.47,119.59 -16.25,36.39 -24.61,76.29 -24.6,116.28 0.01,12.51 0.83,25.03 2.49,37.45 3.33,25.87 10.74,52.03 20.75,75.12 l 21.1,48.26 41.06,93.74 164.26,374.98 165.13,374.6 165.41,374.48 166.26,374.1 83.17,187.03 41.81,93.42 20.91,46.71 10.46,23.35 5.22,11.68 2.61,5.84 2.55,5.43 c 1.4,2.89 2.89,5.68 4.46,8.25 12.31,21.22 33.09,39.46 56.34,48.62 14.24,5.77 29.21,8.63 44.17,8.63 9.46,0 18.91,-1.14 28.17,-3.41 23.89,-5.65 46.83,-20.09 62.46,-39.69 3.93,-4.85 7.37,-9.95 10.37,-15.18 1.53,-2.62 2.95,-5.46 4.32,-8.25 l 1.64,-3.64 5.16,-11.72 41.22,-93.72 82.38,-187.49 C 2955,2740.01 3172.49,2239.1 3387.47,1737.12 l 0.62,-1.46 c 0.02,-0.05 0.04,-0.1 0.06,-0.14 0.01,-0.03 0.02,-0.05 0.03,-0.07 0.01,-0.03 0.02,-0.05 0.04,-0.08 0.02,-0.05 0.04,-0.1 0.06,-0.15 0,-0.01 0.01,-0.02 0.01,-0.04 0.52,-1.24 0.99,-2.57 1.43,-3.97 0.01,-0.01 0.01,-0.03 0.01,-0.04 0.01,-0.03 0.02,-0.07 0.03,-0.1 0.02,-0.05 0.03,-0.09 0.05,-0.14 0,-0.01 0.01,-0.03 0.01,-0.04 0.02,-0.06 0.03,-0.11 0.05,-0.17 0,-0.01 0.01,-0.01 0.01,-0.02 4.71,-15.67 4.44,-40.01 -6.53,-54.78 h -0.01 c -0.96,-1.28 -1.99,-2.5 -3.11,-3.62 l -0.11,-0.1 c -1.08,-1.08 -2.22,-2.1 -3.47,-3 l -1.1,-0.69 c -0.98,-0.65 -1.97,-1.33 -3.05,-1.87 -0.98,-0.49 -1.99,-0.94 -3.05,-1.33 -0.57,-0.21 -1.15,-0.41 -1.75,-0.59 -4.8,-1.45 -9.33,-2.1 -13.61,-2.1 -25.72,0 -42.16,23.39 -52.41,34.1 v 0 c -1.12,1.17 -2.24,2.34 -3.36,3.51 -153.96,160.29 -305.53,273.8 -444.62,354.16 -308.11,178.01 -554.87,193.21 -630.28,193.21 -15.55,0 -23.82,-0.65 -23.82,-0.65 0,0 42.85,8.25 114.14,8.25 138.41,0 383.93,-31.12 630.55,-214.15 154.89,-114.94 273.52,-225.43 361.06,-306.01 3.36,-3.1 7.3,-4.47 11.16,-4.47 9.17,0 17.82,7.77 16.75,18.57 -1.29,12.96 -4.2,25.53 -7.16,32.44 l -721.65,1714.08 c -1.79,4.24 -6.66,13.27 -11.26,22.2 -6.14,11.92 -14.24,25.32 -19.41,31.98 -10.98,14.1 -25.09,25.69 -46.92,32.62 -2.84,0.9 -5.52,1.6 -7.91,2.06 -7.2,1.36 -14.45,2.45 -22.21,2.45 -9.75,0 -20.32,-1.71 -32.65,-6.71 -22.16,-8.72 -45.42,-37.93 -54.62,-59.42 L 1561.19,1529.4 c -13.47,-31.19 -22.9,-64.1 -26.32,-97.9 -2.31,-22.69 -1.05,-43.93 10.57,-69.94 20.14,-45.58 53.15,-85.53 93.81,-113.96 l 3.81,-2.66 2.79,-1.84 5.45,-3.55 10.89,-7.12 21.81,-14.2 c 14.62,-9.35 29.66,-18.02 44.48,-27.04 30.02,-17.42 60.49,-34.1 91.64,-49.45 62.21,-30.89 126.56,-57.51 192.45,-79.62 131.75,-44.22 269.76,-70.608 408.61,-76.569 24.73,-1.18 49.48,-1.77 74.24,-1.77 114.1,0 228.27,12.59 339.79,37.889 135.65,30.82 267.3,80.09 389.38,146.99 122.1,66.84 234.86,150.5 334.24,247.79 99.29,97.34 185.74,208.01 254.47,328.93 68.98,120.73 121.21,250.95 154.86,385.69 67.28,269.57 59.1,556.33 -23.51,821.01 -41.12,132.26 -100.85,258.52 -176.49,374.07 -75.68,115.54 -167.04,220.5 -270.64,311.22 -207.2,181.51 -454.86,314.02 -725.09,358.94 -82.38,13.65 -169.39,20.57 -255.5,20.57 -55.11,0 -109.85,-2.84 -162.76,-8.55 -135.6,-14.56 -268.85,-48.3 -394.59,-99.44 -251.84,-101.81 -482.4,-274.44 -641.75,-490.41 -79.94,-107.79 -144.35,-230.78 -201.85,-351.19 -267.152,-559.37 26.86,-1200.13 26.86,-1200.13 -62.72,121.36 -107.78,252.41 -134.74,387.61 -18.616,94.89 -27.885,191.81 -27.881,289.02 0,41.43 1.687,82.91 5.051,124.31 5.582,69.28 16.1,138.29 31.3,206.4 15.53,68.02 35.53,135.19 60.44,200.61 49.31,131.09 117.46,255.46 201.36,368.59 167.24,226.67 398.72,407.85 663.04,514.7 131.96,53.67 271.81,89.08 414.12,104.36 55.55,6 111.39,8.97 167.29,8.97 87.32,0 174.75,-7.26 261.19,-21.59 283.62,-47.13 554.03,-175.71 771.49,-366.21 108.74,-95.22 204.62,-205.37 284.05,-326.63 79.39,-121.28 142.08,-253.79 185.22,-392.6 47.93,-153.54 71.99,-314.16 72,-474.91 0.01,-130.07 -15.73,-260.22 -47.31,-386.77 -35.32,-141.41 -90.13,-278.07 -162.53,-404.78 -72.14,-126.9 -162.87,-243.06 -267.07,-345.22 -104.31,-102.1 -222.66,-189.92 -350.8,-260.05 -128.13,-70.22 -266.29,-121.939 -408.66,-154.279 -117.08,-26.57 -236.87,-39.781 -356.65,-39.769"
         style="fill:#c3c5c2;fill-opacity:1;fill-rule:nonzero;stroke:none"
         id="path22" />
    </g>
  </g>
</svg>
